<?xml version="1.0" encoding="UTF-8" standalone="no"?>
<!DOCTYPE svg PUBLIC "-//W3C//DTD SVG 1.1//EN" "http://www.w3.org/Graphics/SVG/1.1/DTD/svg11.dtd">
<svg width="100%" height="100%" viewBox="0 0 179 41" version="1.1" xmlns="http://www.w3.org/2000/svg" xmlns:xlink="http://www.w3.org/1999/xlink" xml:space="preserve" xmlns:serif="http://www.serif.com/" style="fill-rule:evenodd;clip-rule:evenodd;stroke-linejoin:round;stroke-miterlimit:2;">
    <g transform="matrix(1,0,0,0.725,-10,-20.909)">
        <path d="M93,55l0,20c0,5.519 -3.249,10 -7.25,10l-68.5,0c-4.001,0 -7.25,-4.481 -7.25,-10l0,-20c0,-5.519 3.249,-10 7.25,-10l68.5,0c4.001,0 7.25,4.481 7.25,10Z" style="fill:rgb(91,255,0);"/>
    </g>
    <g transform="matrix(1,0,0,0.725,85.9448,-20.909)">
        <path d="M93,55l0,20c0,5.519 -3.249,10 -7.25,10l-68.5,0c-4.001,0 -7.25,-4.481 -7.25,-10l0,-20c0,-5.519 3.249,-10 7.25,-10l68.5,0c4.001,0 7.25,4.481 7.25,10Z" style="fill:rgb(0,255,255);"/>
    </g>
    <g transform="matrix(1,0,0,1,126.17,59.9107)">
        <g transform="matrix(58.5299,0,0,58.5299,0,0)">
            <path d="M0.031,-0.584l0.023,-0.07c0.051,0.018 0.089,0.034 0.113,0.048c-0.007,-0.059 -0.01,-0.1 -0.01,-0.122l0.071,-0c-0.001,0.032 -0.005,0.073 -0.012,0.121c0.034,-0.017 0.072,-0.032 0.116,-0.047l0.022,0.07c-0.041,0.013 -0.082,0.022 -0.122,0.027c0.02,0.017 0.048,0.048 0.084,0.092l-0.058,0.042c-0.019,-0.026 -0.041,-0.061 -0.067,-0.105c-0.024,0.046 -0.045,0.081 -0.064,0.105l-0.057,-0.042c0.038,-0.046 0.065,-0.077 0.081,-0.092c-0.042,-0.008 -0.082,-0.017 -0.12,-0.027Z" style="fill-rule:nonzero;"/>
        </g>
    </g>
    <g transform="matrix(1,0,0,1,18.8368,59.9107)">
        <g transform="matrix(58.5299,0,0,58.5299,0,0)">
            <path d="M0.031,-0.584l0.023,-0.07c0.051,0.018 0.089,0.034 0.113,0.048c-0.007,-0.059 -0.01,-0.1 -0.01,-0.122l0.071,-0c-0.001,0.032 -0.005,0.073 -0.012,0.121c0.034,-0.017 0.072,-0.032 0.116,-0.047l0.022,0.07c-0.041,0.013 -0.082,0.022 -0.122,0.027c0.02,0.017 0.048,0.048 0.084,0.092l-0.058,0.042c-0.019,-0.026 -0.041,-0.061 -0.067,-0.105c-0.024,0.046 -0.045,0.081 -0.064,0.105l-0.057,-0.042c0.038,-0.046 0.065,-0.077 0.081,-0.092c-0.042,-0.008 -0.082,-0.017 -0.12,-0.027Z" style="fill-rule:nonzero;"/>
        </g>
        <g transform="matrix(58.5299,0,0,58.5299,22.7775,0)">
            <path d="M0.031,-0.584l0.023,-0.07c0.051,0.018 0.089,0.034 0.113,0.048c-0.007,-0.059 -0.01,-0.1 -0.01,-0.122l0.071,-0c-0.001,0.032 -0.005,0.073 -0.012,0.121c0.034,-0.017 0.072,-0.032 0.116,-0.047l0.022,0.07c-0.041,0.013 -0.082,0.022 -0.122,0.027c0.02,0.017 0.048,0.048 0.084,0.092l-0.058,0.042c-0.019,-0.026 -0.041,-0.061 -0.067,-0.105c-0.024,0.046 -0.045,0.081 -0.064,0.105l-0.057,-0.042c0.038,-0.046 0.065,-0.077 0.081,-0.092c-0.042,-0.008 -0.082,-0.017 -0.12,-0.027Z" style="fill-rule:nonzero;"/>
        </g>
    </g>
    <g transform="matrix(0.952863,0,0,0.952863,-1.87572,-25.9748)">
        <g transform="matrix(16.7526,0,0,16.7526,12,38)">
            <path d="M0.472,-0.447c0,0.032 -0.005,0.06 -0.015,0.086c-0.011,0.025 -0.026,0.047 -0.045,0.065c-0.02,0.018 -0.043,0.031 -0.071,0.041c-0.029,0.01 -0.062,0.015 -0.101,0.015l-0.072,-0l-0,0.227c-0,0.003 -0.001,0.005 -0.002,0.007c-0.002,0.002 -0.004,0.004 -0.007,0.005c-0.003,0.001 -0.007,0.002 -0.013,0.003c-0.005,0.001 -0.012,0.001 -0.02,0.001c-0.008,-0 -0.015,-0 -0.02,-0.001c-0.006,-0.001 -0.01,-0.002 -0.013,-0.003c-0.003,-0.001 -0.006,-0.003 -0.007,-0.005c-0.001,-0.002 -0.002,-0.004 -0.002,-0.007l-0,-0.583c-0,-0.013 0.003,-0.022 0.01,-0.028c0.007,-0.005 0.015,-0.008 0.023,-0.008l0.135,0c0.014,0 0.027,0.001 0.04,0.002c0.012,0.001 0.027,0.003 0.044,0.007c0.017,0.004 0.035,0.011 0.052,0.021c0.018,0.01 0.033,0.023 0.046,0.038c0.012,0.015 0.021,0.032 0.028,0.052c0.007,0.02 0.01,0.041 0.01,0.065Zm-0.088,0.007c-0,-0.026 -0.005,-0.047 -0.015,-0.064c-0.009,-0.018 -0.021,-0.031 -0.035,-0.039c-0.014,-0.008 -0.029,-0.014 -0.044,-0.016c-0.015,-0.002 -0.03,-0.004 -0.044,-0.004l-0.078,0l-0,0.254l0.076,-0c0.025,-0 0.046,-0.003 0.063,-0.01c0.017,-0.006 0.031,-0.015 0.042,-0.027c0.012,-0.012 0.02,-0.025 0.026,-0.041c0.006,-0.017 0.009,-0.034 0.009,-0.053Z" style="fill-rule:nonzero;"/>
        </g>
        <g transform="matrix(16.7526,0,0,16.7526,20.6544,38)">
            <path d="M0.505,-0.013c0,0.003 -0,0.005 -0.001,0.007c-0.001,0.002 -0.003,0.004 -0.006,0.005c-0.004,0.001 -0.008,0.002 -0.014,0.003c-0.006,0.001 -0.014,0.001 -0.024,0.001c-0.008,-0 -0.015,-0 -0.02,-0.001c-0.006,-0.001 -0.01,-0.002 -0.013,-0.003c-0.003,-0.002 -0.006,-0.004 -0.008,-0.006c-0.002,-0.003 -0.003,-0.006 -0.004,-0.01l-0.059,-0.149c-0.006,-0.017 -0.013,-0.032 -0.021,-0.047c-0.007,-0.014 -0.016,-0.026 -0.026,-0.036c-0.01,-0.011 -0.022,-0.018 -0.036,-0.024c-0.013,-0.006 -0.03,-0.009 -0.049,-0.009l-0.056,0l-0,0.269c-0,0.003 -0.001,0.005 -0.002,0.007c-0.002,0.002 -0.004,0.004 -0.007,0.005c-0.003,0.001 -0.007,0.002 -0.013,0.003c-0.005,0.001 -0.012,0.001 -0.02,0.001c-0.008,-0 -0.015,-0 -0.02,-0.001c-0.006,-0.001 -0.01,-0.002 -0.013,-0.003c-0.003,-0.001 -0.006,-0.003 -0.007,-0.005c-0.001,-0.002 -0.002,-0.004 -0.002,-0.007l-0,-0.585c-0,-0.012 0.003,-0.021 0.01,-0.026c0.007,-0.005 0.014,-0.008 0.021,-0.008l0.135,0c0.015,0 0.029,0.001 0.039,0.001c0.011,0.001 0.02,0.002 0.029,0.003c0.024,0.004 0.046,0.011 0.065,0.02c0.018,0.009 0.034,0.021 0.047,0.035c0.012,0.014 0.022,0.03 0.028,0.048c0.007,0.018 0.01,0.038 0.01,0.06c-0,0.021 -0.003,0.04 -0.009,0.057c-0.005,0.016 -0.014,0.031 -0.024,0.044c-0.011,0.013 -0.024,0.024 -0.039,0.033c-0.015,0.01 -0.032,0.018 -0.05,0.024c0.01,0.005 0.02,0.011 0.028,0.018c0.008,0.007 0.016,0.015 0.024,0.025c0.007,0.01 0.014,0.021 0.02,0.034c0.007,0.012 0.013,0.027 0.02,0.042l0.057,0.14c0.004,0.011 0.007,0.02 0.008,0.024c0.002,0.005 0.002,0.009 0.002,0.011Zm-0.126,-0.444c-0,-0.024 -0.006,-0.045 -0.017,-0.062c-0.011,-0.017 -0.029,-0.03 -0.055,-0.037c-0.008,-0.002 -0.018,-0.004 -0.028,-0.005c-0.01,-0.001 -0.024,-0.002 -0.04,-0.002l-0.071,0l-0,0.213l0.082,0c0.022,0 0.041,-0.002 0.057,-0.008c0.016,-0.005 0.03,-0.013 0.041,-0.022c0.01,-0.01 0.018,-0.021 0.023,-0.034c0.005,-0.013 0.008,-0.027 0.008,-0.043Z" style="fill-rule:nonzero;"/>
        </g>
        <g transform="matrix(16.7526,0,0,16.7526,29.7505,38)">
            <path d="M0.436,-0.035c-0,0.006 -0.001,0.011 -0.001,0.016c-0.001,0.004 -0.002,0.008 -0.004,0.011c-0.001,0.003 -0.003,0.005 -0.005,0.006c-0.003,0.001 -0.005,0.002 -0.008,0.002l-0.303,0c-0.007,0 -0.014,-0.003 -0.021,-0.008c-0.007,-0.005 -0.01,-0.013 -0.01,-0.026l-0,-0.564c-0,-0.012 0.003,-0.021 0.01,-0.026c0.007,-0.005 0.014,-0.008 0.021,-0.008l0.3,0c0.003,0 0.005,0.001 0.007,0.002c0.002,0.001 0.004,0.004 0.005,0.006c0.002,0.003 0.003,0.007 0.003,0.011c0.001,0.005 0.002,0.01 0.002,0.017c-0,0.006 -0.001,0.011 -0.002,0.015c-0,0.005 -0.001,0.008 -0.003,0.011c-0.001,0.003 -0.003,0.005 -0.005,0.006c-0.002,0.001 -0.004,0.002 -0.007,0.002l-0.247,-0l-0,0.198l0.212,0c0.002,0 0.005,0.001 0.007,0.002c0.002,0.002 0.004,0.004 0.005,0.007c0.002,0.002 0.003,0.006 0.004,0.01c0,0.005 0,0.01 0,0.016c0,0.006 0,0.011 -0,0.016c-0.001,0.004 -0.002,0.007 -0.004,0.01c-0.001,0.002 -0.003,0.004 -0.005,0.005c-0.002,0.002 -0.005,0.002 -0.007,0.002l-0.212,0l-0,0.226l0.25,0c0.003,0 0.005,0.001 0.008,0.002c0.002,0.001 0.004,0.003 0.005,0.006c0.002,0.003 0.003,0.007 0.004,0.011c0,0.004 0.001,0.01 0.001,0.016Z" style="fill-rule:nonzero;"/>
        </g>
        <g transform="matrix(16.7526,0,0,16.7526,37.7096,38)">
            <path d="M0.272,-0.247c0,0.013 -0.001,0.022 -0.004,0.027c-0.003,0.005 -0.007,0.007 -0.013,0.007l-0.204,0c-0.006,0 -0.01,-0.002 -0.013,-0.007c-0.003,-0.006 -0.004,-0.014 -0.004,-0.027c-0,-0.012 0.001,-0.021 0.004,-0.025c0.003,-0.005 0.007,-0.008 0.013,-0.008l0.204,0c0.003,0 0.005,0.001 0.007,0.002c0.003,0.001 0.004,0.003 0.006,0.005c0.001,0.003 0.002,0.007 0.003,0.011c0.001,0.004 0.001,0.009 0.001,0.015Z" style="fill-rule:nonzero;"/>
        </g>
        <g transform="matrix(16.7526,0,0,16.7526,42.8384,38)">
            <path d="M0.472,-0.447c0,0.032 -0.005,0.06 -0.015,0.086c-0.011,0.025 -0.026,0.047 -0.045,0.065c-0.02,0.018 -0.043,0.031 -0.071,0.041c-0.029,0.01 -0.062,0.015 -0.101,0.015l-0.072,-0l-0,0.227c-0,0.003 -0.001,0.005 -0.002,0.007c-0.002,0.002 -0.004,0.004 -0.007,0.005c-0.003,0.001 -0.007,0.002 -0.013,0.003c-0.005,0.001 -0.012,0.001 -0.02,0.001c-0.008,-0 -0.015,-0 -0.02,-0.001c-0.006,-0.001 -0.01,-0.002 -0.013,-0.003c-0.003,-0.001 -0.006,-0.003 -0.007,-0.005c-0.001,-0.002 -0.002,-0.004 -0.002,-0.007l-0,-0.583c-0,-0.013 0.003,-0.022 0.01,-0.028c0.007,-0.005 0.015,-0.008 0.023,-0.008l0.135,0c0.014,0 0.027,0.001 0.04,0.002c0.012,0.001 0.027,0.003 0.044,0.007c0.017,0.004 0.035,0.011 0.052,0.021c0.018,0.01 0.033,0.023 0.046,0.038c0.012,0.015 0.021,0.032 0.028,0.052c0.007,0.02 0.01,0.041 0.01,0.065Zm-0.088,0.007c-0,-0.026 -0.005,-0.047 -0.015,-0.064c-0.009,-0.018 -0.021,-0.031 -0.035,-0.039c-0.014,-0.008 -0.029,-0.014 -0.044,-0.016c-0.015,-0.002 -0.03,-0.004 -0.044,-0.004l-0.078,0l-0,0.254l0.076,-0c0.025,-0 0.046,-0.003 0.063,-0.01c0.017,-0.006 0.031,-0.015 0.042,-0.027c0.012,-0.012 0.02,-0.025 0.026,-0.041c0.006,-0.017 0.009,-0.034 0.009,-0.053Z" style="fill-rule:nonzero;"/>
        </g>
        <g transform="matrix(16.7526,0,0,16.7526,51.4928,38)">
            <path d="M0.412,-0.037c-0,0.007 -0.001,0.012 -0.001,0.017c-0.001,0.004 -0.002,0.008 -0.004,0.011c-0.001,0.003 -0.003,0.005 -0.005,0.007c-0.002,0.001 -0.005,0.002 -0.007,0.002l-0.28,-0c-0.007,-0 -0.014,-0.003 -0.021,-0.008c-0.007,-0.005 -0.01,-0.013 -0.01,-0.026l-0,-0.585c-0,-0.003 0.001,-0.005 0.002,-0.007c0.001,-0.002 0.004,-0.003 0.007,-0.005c0.003,-0.001 0.007,-0.002 0.013,-0.003c0.005,-0 0.012,-0.001 0.02,-0.001c0.008,0 0.015,0.001 0.02,0.001c0.006,0.001 0.01,0.002 0.013,0.003c0.003,0.002 0.006,0.003 0.007,0.005c0.001,0.002 0.002,0.004 0.002,0.007l-0,0.546l0.227,0c0.002,0 0.005,0.001 0.007,0.002c0.002,0.002 0.004,0.004 0.005,0.007c0.002,0.003 0.003,0.006 0.004,0.011c0,0.004 0.001,0.01 0.001,0.016Z" style="fill-rule:nonzero;"/>
        </g>
        <g transform="matrix(16.7526,0,0,16.7526,58.5358,38)">
            <path d="M0.557,-0.03c0.003,0.007 0.004,0.013 0.004,0.018c0,0.004 -0.001,0.007 -0.003,0.01c-0.003,0.002 -0.007,0.003 -0.013,0.004c-0.006,0.001 -0.014,0.001 -0.024,0.001c-0.011,-0 -0.019,-0 -0.025,-0.001c-0.006,-0 -0.01,-0.001 -0.013,-0.002c-0.003,-0.001 -0.006,-0.003 -0.007,-0.005c-0.002,-0.002 -0.003,-0.004 -0.004,-0.007l-0.055,-0.154l-0.262,-0l-0.052,0.152c-0.001,0.003 -0.002,0.005 -0.004,0.007c-0.002,0.003 -0.004,0.004 -0.007,0.006c-0.003,0.001 -0.007,0.002 -0.013,0.003c-0.006,0.001 -0.013,0.001 -0.022,0.001c-0.01,-0 -0.018,-0 -0.024,-0.001c-0.006,-0.001 -0.01,-0.003 -0.012,-0.005c-0.003,-0.002 -0.004,-0.006 -0.004,-0.01c0,-0.004 0.002,-0.01 0.004,-0.017l0.212,-0.587c0.002,-0.004 0.003,-0.007 0.006,-0.009c0.002,-0.002 0.005,-0.004 0.009,-0.005c0.004,-0.002 0.009,-0.003 0.015,-0.003c0.007,-0.001 0.015,-0.001 0.025,-0.001c0.01,0 0.019,0 0.025,0.001c0.007,0 0.013,0.001 0.017,0.003c0.004,0.001 0.008,0.003 0.01,0.005c0.002,0.003 0.004,0.006 0.005,0.009l0.212,0.587Zm-0.272,-0.518l-0,0l-0.109,0.315l0.22,0l-0.111,-0.315Z" style="fill-rule:nonzero;"/>
        </g>
        <g transform="matrix(16.7526,0,0,16.7526,68.229,38)">
            <path d="M0.562,-0.035c-0,0.007 -0.002,0.012 -0.004,0.017c-0.002,0.004 -0.005,0.008 -0.008,0.011c-0.003,0.003 -0.007,0.005 -0.011,0.007c-0.005,0.001 -0.009,0.001 -0.013,0.001l-0.027,0c-0.008,0 -0.016,-0 -0.022,-0.002c-0.007,-0.002 -0.013,-0.005 -0.018,-0.01c-0.006,-0.005 -0.012,-0.011 -0.017,-0.019c-0.006,-0.008 -0.012,-0.019 -0.019,-0.032l-0.199,-0.359c-0.011,-0.018 -0.021,-0.038 -0.032,-0.058c-0.01,-0.021 -0.02,-0.04 -0.029,-0.06l-0.001,0c0,0.024 0.001,0.048 0.001,0.072c0,0.025 0.001,0.049 0.001,0.073l-0,0.381c-0,0.003 -0.001,0.005 -0.002,0.007c-0.002,0.002 -0.004,0.004 -0.007,0.005c-0.003,0.001 -0.007,0.002 -0.012,0.003c-0.005,0.001 -0.012,0.001 -0.019,0.001c-0.008,-0 -0.015,-0 -0.02,-0.001c-0.005,-0.001 -0.009,-0.002 -0.012,-0.003c-0.003,-0.001 -0.005,-0.003 -0.006,-0.005c-0.001,-0.002 -0.002,-0.004 -0.002,-0.007l-0,-0.583c-0,-0.013 0.004,-0.022 0.011,-0.028c0.007,-0.005 0.015,-0.008 0.023,-0.008l0.04,0c0.01,0 0.018,0.001 0.024,0.003c0.006,0.001 0.012,0.004 0.017,0.008c0.005,0.003 0.01,0.009 0.015,0.015c0.004,0.007 0.009,0.015 0.015,0.025l0.153,0.278c0.01,0.017 0.019,0.033 0.028,0.049c0.008,0.016 0.017,0.032 0.025,0.048c0.008,0.016 0.016,0.031 0.024,0.046c0.008,0.015 0.016,0.03 0.024,0.046l0,-0c-0,-0.026 -0.001,-0.053 -0.001,-0.081c0,-0.027 -0,-0.054 -0,-0.08l-0,-0.343c-0,-0.002 0.001,-0.004 0.002,-0.006c0.001,-0.002 0.003,-0.004 0.006,-0.005c0.004,-0.002 0.008,-0.003 0.013,-0.003c0.005,-0.001 0.011,-0.001 0.019,-0.001c0.008,-0 0.014,0 0.019,0.001c0.005,0 0.009,0.001 0.012,0.003c0.003,0.001 0.005,0.003 0.007,0.005c0.001,0.002 0.002,0.004 0.002,0.006l-0,0.583Z" style="fill-rule:nonzero;"/>
        </g>
    </g>
    <g transform="matrix(0.952863,0,0,0.952863,92.9039,-25.9748)">
        <g transform="matrix(16.7526,0,0,16.7526,12,38)">
            <path d="M0.423,-0.177c0,0.029 -0.005,0.056 -0.016,0.079c-0.011,0.023 -0.026,0.043 -0.045,0.059c-0.02,0.016 -0.043,0.028 -0.069,0.036c-0.026,0.008 -0.054,0.012 -0.085,0.012c-0.021,0 -0.04,-0.002 -0.058,-0.005c-0.018,-0.004 -0.035,-0.008 -0.049,-0.013c-0.014,-0.005 -0.026,-0.011 -0.035,-0.016c-0.01,-0.006 -0.017,-0.011 -0.02,-0.015c-0.004,-0.003 -0.007,-0.008 -0.009,-0.014c-0.001,-0.006 -0.002,-0.015 -0.002,-0.025c-0,-0.007 -0,-0.013 0.001,-0.017c0,-0.005 0.001,-0.009 0.003,-0.012c0.001,-0.003 0.003,-0.005 0.004,-0.006c0.002,-0.001 0.005,-0.002 0.007,-0.002c0.005,0 0.011,0.003 0.02,0.009c0.008,0.005 0.019,0.011 0.032,0.018c0.013,0.006 0.028,0.012 0.047,0.018c0.018,0.006 0.039,0.008 0.063,0.008c0.019,0 0.035,-0.002 0.05,-0.007c0.016,-0.005 0.029,-0.012 0.04,-0.021c0.01,-0.009 0.019,-0.02 0.025,-0.033c0.006,-0.013 0.008,-0.027 0.008,-0.044c0,-0.018 -0.004,-0.033 -0.012,-0.046c-0.008,-0.013 -0.019,-0.024 -0.032,-0.033c-0.013,-0.01 -0.029,-0.019 -0.046,-0.027c-0.017,-0.008 -0.034,-0.016 -0.052,-0.024c-0.018,-0.008 -0.035,-0.018 -0.052,-0.028c-0.017,-0.01 -0.032,-0.022 -0.046,-0.035c-0.013,-0.014 -0.024,-0.03 -0.032,-0.048c-0.009,-0.019 -0.013,-0.041 -0.013,-0.067c0,-0.026 0.005,-0.049 0.015,-0.07c0.009,-0.021 0.023,-0.038 0.04,-0.052c0.017,-0.014 0.037,-0.025 0.061,-0.032c0.023,-0.007 0.049,-0.011 0.076,-0.011c0.014,-0 0.028,0.001 0.042,0.004c0.015,0.002 0.028,0.005 0.04,0.009c0.013,0.004 0.024,0.009 0.034,0.014c0.01,0.005 0.016,0.009 0.019,0.012c0.003,0.003 0.005,0.006 0.006,0.008c0.001,0.001 0.002,0.004 0.003,0.006c0,0.003 0.001,0.006 0.001,0.01c0.001,0.004 0.001,0.009 0.001,0.016c-0,0.005 -0.001,0.011 -0.001,0.015c-0.001,0.005 -0.001,0.009 -0.002,0.012c-0.001,0.003 -0.003,0.005 -0.004,0.006c-0.002,0.002 -0.004,0.003 -0.006,0.003c-0.004,-0 -0.01,-0.003 -0.017,-0.007c-0.008,-0.005 -0.017,-0.01 -0.028,-0.016c-0.011,-0.005 -0.025,-0.01 -0.04,-0.015c-0.015,-0.005 -0.032,-0.007 -0.051,-0.007c-0.017,-0 -0.033,0.002 -0.046,0.007c-0.013,0.005 -0.023,0.011 -0.032,0.019c-0.008,0.007 -0.015,0.017 -0.019,0.027c-0.004,0.011 -0.006,0.023 -0.006,0.035c-0,0.017 0.004,0.032 0.012,0.045c0.008,0.013 0.019,0.024 0.032,0.034c0.014,0.009 0.029,0.018 0.047,0.027c0.017,0.008 0.034,0.016 0.052,0.024c0.018,0.009 0.036,0.018 0.053,0.028c0.017,0.009 0.033,0.021 0.046,0.035c0.014,0.013 0.025,0.029 0.033,0.048c0.008,0.018 0.012,0.04 0.012,0.065Z" style="fill-rule:nonzero;"/>
        </g>
        <g transform="matrix(16.7526,0,0,16.7526,19.6973,38)">
            <path d="M0.506,-0.089c-0,0.005 -0,0.009 -0.001,0.013c0,0.004 -0.001,0.008 -0.001,0.011c-0.001,0.003 -0.002,0.005 -0.004,0.007c-0.001,0.003 -0.003,0.005 -0.006,0.009c-0.004,0.003 -0.01,0.008 -0.021,0.015c-0.01,0.006 -0.023,0.013 -0.039,0.019c-0.015,0.006 -0.033,0.012 -0.053,0.016c-0.02,0.005 -0.042,0.007 -0.066,0.007c-0.041,-0 -0.078,-0.007 -0.111,-0.021c-0.033,-0.013 -0.061,-0.034 -0.084,-0.06c-0.023,-0.027 -0.041,-0.06 -0.054,-0.099c-0.012,-0.039 -0.019,-0.085 -0.019,-0.136c0,-0.052 0.007,-0.099 0.021,-0.14c0.013,-0.041 0.032,-0.076 0.057,-0.104c0.024,-0.028 0.053,-0.05 0.087,-0.065c0.034,-0.015 0.072,-0.023 0.113,-0.023c0.018,0 0.036,0.002 0.053,0.005c0.018,0.004 0.034,0.008 0.048,0.013c0.015,0.006 0.028,0.012 0.039,0.018c0.012,0.007 0.02,0.013 0.024,0.017c0.004,0.005 0.007,0.008 0.009,0.01c0.001,0.003 0.002,0.005 0.003,0.008c0.001,0.003 0.001,0.007 0.002,0.011c0,0.005 0,0.01 0,0.016c0,0.006 0,0.012 -0.001,0.016c-0,0.005 -0.001,0.009 -0.002,0.012c-0.002,0.003 -0.003,0.005 -0.005,0.006c-0.002,0.002 -0.004,0.003 -0.007,0.003c-0.004,-0 -0.011,-0.004 -0.019,-0.01c-0.008,-0.006 -0.018,-0.013 -0.031,-0.021c-0.013,-0.008 -0.029,-0.015 -0.047,-0.021c-0.019,-0.006 -0.041,-0.009 -0.066,-0.009c-0.028,-0 -0.054,0.005 -0.077,0.016c-0.023,0.012 -0.042,0.028 -0.059,0.05c-0.016,0.022 -0.028,0.048 -0.037,0.08c-0.009,0.031 -0.014,0.067 -0.014,0.107c0,0.041 0.004,0.076 0.013,0.107c0.009,0.03 0.021,0.056 0.037,0.077c0.016,0.021 0.036,0.036 0.06,0.047c0.023,0.01 0.05,0.016 0.079,0.016c0.025,-0 0.047,-0.003 0.066,-0.01c0.019,-0.006 0.034,-0.013 0.048,-0.02c0.013,-0.008 0.024,-0.015 0.032,-0.021c0.009,-0.006 0.015,-0.009 0.02,-0.009c0.002,-0 0.004,0 0.006,0.001c0.002,0.001 0.003,0.003 0.004,0.006c0.001,0.002 0.002,0.006 0.002,0.011c0.001,0.005 0.001,0.011 0.001,0.019Z" style="fill-rule:nonzero;"/>
        </g>
        <g transform="matrix(16.7526,0,0,16.7526,28.6299,38)">
            <path d="M0.436,-0.035c-0,0.006 -0.001,0.011 -0.001,0.016c-0.001,0.004 -0.002,0.008 -0.004,0.011c-0.001,0.003 -0.003,0.005 -0.005,0.006c-0.003,0.001 -0.005,0.002 -0.008,0.002l-0.303,0c-0.007,0 -0.014,-0.003 -0.021,-0.008c-0.007,-0.005 -0.01,-0.013 -0.01,-0.026l-0,-0.564c-0,-0.012 0.003,-0.021 0.01,-0.026c0.007,-0.005 0.014,-0.008 0.021,-0.008l0.3,0c0.003,0 0.005,0.001 0.007,0.002c0.002,0.001 0.004,0.004 0.005,0.006c0.002,0.003 0.003,0.007 0.003,0.011c0.001,0.005 0.002,0.01 0.002,0.017c-0,0.006 -0.001,0.011 -0.002,0.015c-0,0.005 -0.001,0.008 -0.003,0.011c-0.001,0.003 -0.003,0.005 -0.005,0.006c-0.002,0.001 -0.004,0.002 -0.007,0.002l-0.247,-0l-0,0.198l0.212,0c0.002,0 0.005,0.001 0.007,0.002c0.002,0.002 0.004,0.004 0.005,0.007c0.002,0.002 0.003,0.006 0.004,0.01c0,0.005 0,0.01 0,0.016c0,0.006 0,0.011 -0,0.016c-0.001,0.004 -0.002,0.007 -0.004,0.01c-0.001,0.002 -0.003,0.004 -0.005,0.005c-0.002,0.002 -0.005,0.002 -0.007,0.002l-0.212,0l-0,0.226l0.25,0c0.003,0 0.005,0.001 0.008,0.002c0.002,0.001 0.004,0.003 0.005,0.006c0.002,0.003 0.003,0.007 0.004,0.011c0,0.004 0.001,0.01 0.001,0.016Z" style="fill-rule:nonzero;"/>
        </g>
        <g transform="matrix(16.7526,0,0,16.7526,36.8098,38)">
            <path d="M0.562,-0.035c-0,0.007 -0.002,0.012 -0.004,0.017c-0.002,0.004 -0.005,0.008 -0.008,0.011c-0.003,0.003 -0.007,0.005 -0.011,0.007c-0.005,0.001 -0.009,0.001 -0.013,0.001l-0.027,0c-0.008,0 -0.016,-0 -0.022,-0.002c-0.007,-0.002 -0.013,-0.005 -0.018,-0.01c-0.006,-0.005 -0.012,-0.011 -0.017,-0.019c-0.006,-0.008 -0.012,-0.019 -0.019,-0.032l-0.199,-0.359c-0.011,-0.018 -0.021,-0.038 -0.032,-0.058c-0.01,-0.021 -0.02,-0.04 -0.029,-0.06l-0.001,0c0,0.024 0.001,0.048 0.001,0.072c0,0.025 0.001,0.049 0.001,0.073l-0,0.381c-0,0.003 -0.001,0.005 -0.002,0.007c-0.002,0.002 -0.004,0.004 -0.007,0.005c-0.003,0.001 -0.007,0.002 -0.012,0.003c-0.005,0.001 -0.012,0.001 -0.019,0.001c-0.008,-0 -0.015,-0 -0.02,-0.001c-0.005,-0.001 -0.009,-0.002 -0.012,-0.003c-0.003,-0.001 -0.005,-0.003 -0.006,-0.005c-0.001,-0.002 -0.002,-0.004 -0.002,-0.007l-0,-0.583c-0,-0.013 0.004,-0.022 0.011,-0.028c0.007,-0.005 0.015,-0.008 0.023,-0.008l0.04,0c0.01,0 0.018,0.001 0.024,0.003c0.006,0.001 0.012,0.004 0.017,0.008c0.005,0.003 0.01,0.009 0.015,0.015c0.004,0.007 0.009,0.015 0.015,0.025l0.153,0.278c0.01,0.017 0.019,0.033 0.028,0.049c0.008,0.016 0.017,0.032 0.025,0.048c0.008,0.016 0.016,0.031 0.024,0.046c0.008,0.015 0.016,0.03 0.024,0.046l0,-0c-0,-0.026 -0.001,-0.053 -0.001,-0.081c0,-0.027 -0,-0.054 -0,-0.08l-0,-0.343c-0,-0.002 0.001,-0.004 0.002,-0.006c0.001,-0.002 0.003,-0.004 0.006,-0.005c0.004,-0.002 0.008,-0.003 0.013,-0.003c0.005,-0.001 0.011,-0.001 0.019,-0.001c0.008,-0 0.014,0 0.019,0.001c0.005,0 0.009,0.001 0.012,0.003c0.003,0.001 0.005,0.003 0.007,0.005c0.001,0.002 0.002,0.004 0.002,0.006l-0,0.583Z" style="fill-rule:nonzero;"/>
        </g>
        <g transform="matrix(16.7526,0,0,16.7526,47.6237,38)">
            <path d="M0.557,-0.03c0.003,0.007 0.004,0.013 0.004,0.018c0,0.004 -0.001,0.007 -0.003,0.01c-0.003,0.002 -0.007,0.003 -0.013,0.004c-0.006,0.001 -0.014,0.001 -0.024,0.001c-0.011,-0 -0.019,-0 -0.025,-0.001c-0.006,-0 -0.01,-0.001 -0.013,-0.002c-0.003,-0.001 -0.006,-0.003 -0.007,-0.005c-0.002,-0.002 -0.003,-0.004 -0.004,-0.007l-0.055,-0.154l-0.262,-0l-0.052,0.152c-0.001,0.003 -0.002,0.005 -0.004,0.007c-0.002,0.003 -0.004,0.004 -0.007,0.006c-0.003,0.001 -0.007,0.002 -0.013,0.003c-0.006,0.001 -0.013,0.001 -0.022,0.001c-0.01,-0 -0.018,-0 -0.024,-0.001c-0.006,-0.001 -0.01,-0.003 -0.012,-0.005c-0.003,-0.002 -0.004,-0.006 -0.004,-0.01c0,-0.004 0.002,-0.01 0.004,-0.017l0.212,-0.587c0.002,-0.004 0.003,-0.007 0.006,-0.009c0.002,-0.002 0.005,-0.004 0.009,-0.005c0.004,-0.002 0.009,-0.003 0.015,-0.003c0.007,-0.001 0.015,-0.001 0.025,-0.001c0.01,0 0.019,0 0.025,0.001c0.007,0 0.013,0.001 0.017,0.003c0.004,0.001 0.008,0.003 0.01,0.005c0.002,0.003 0.004,0.006 0.005,0.009l0.212,0.587Zm-0.272,-0.518l-0,0l-0.109,0.315l0.22,0l-0.111,-0.315Z" style="fill-rule:nonzero;"/>
        </g>
        <g transform="matrix(16.7526,0,0,16.7526,57.317,38)">
            <path d="M0.505,-0.013c0,0.003 -0,0.005 -0.001,0.007c-0.001,0.002 -0.003,0.004 -0.006,0.005c-0.004,0.001 -0.008,0.002 -0.014,0.003c-0.006,0.001 -0.014,0.001 -0.024,0.001c-0.008,-0 -0.015,-0 -0.02,-0.001c-0.006,-0.001 -0.01,-0.002 -0.013,-0.003c-0.003,-0.002 -0.006,-0.004 -0.008,-0.006c-0.002,-0.003 -0.003,-0.006 -0.004,-0.01l-0.059,-0.149c-0.006,-0.017 -0.013,-0.032 -0.021,-0.047c-0.007,-0.014 -0.016,-0.026 -0.026,-0.036c-0.01,-0.011 -0.022,-0.018 -0.036,-0.024c-0.013,-0.006 -0.03,-0.009 -0.049,-0.009l-0.056,0l-0,0.269c-0,0.003 -0.001,0.005 -0.002,0.007c-0.002,0.002 -0.004,0.004 -0.007,0.005c-0.003,0.001 -0.007,0.002 -0.013,0.003c-0.005,0.001 -0.012,0.001 -0.02,0.001c-0.008,-0 -0.015,-0 -0.02,-0.001c-0.006,-0.001 -0.01,-0.002 -0.013,-0.003c-0.003,-0.001 -0.006,-0.003 -0.007,-0.005c-0.001,-0.002 -0.002,-0.004 -0.002,-0.007l-0,-0.585c-0,-0.012 0.003,-0.021 0.01,-0.026c0.007,-0.005 0.014,-0.008 0.021,-0.008l0.135,0c0.015,0 0.029,0.001 0.039,0.001c0.011,0.001 0.02,0.002 0.029,0.003c0.024,0.004 0.046,0.011 0.065,0.02c0.018,0.009 0.034,0.021 0.047,0.035c0.012,0.014 0.022,0.03 0.028,0.048c0.007,0.018 0.01,0.038 0.01,0.06c-0,0.021 -0.003,0.04 -0.009,0.057c-0.005,0.016 -0.014,0.031 -0.024,0.044c-0.011,0.013 -0.024,0.024 -0.039,0.033c-0.015,0.01 -0.032,0.018 -0.05,0.024c0.01,0.005 0.02,0.011 0.028,0.018c0.008,0.007 0.016,0.015 0.024,0.025c0.007,0.01 0.014,0.021 0.02,0.034c0.007,0.012 0.013,0.027 0.02,0.042l0.057,0.14c0.004,0.011 0.007,0.02 0.008,0.024c0.002,0.005 0.002,0.009 0.002,0.011Zm-0.126,-0.444c-0,-0.024 -0.006,-0.045 -0.017,-0.062c-0.011,-0.017 -0.029,-0.03 -0.055,-0.037c-0.008,-0.002 -0.018,-0.004 -0.028,-0.005c-0.01,-0.001 -0.024,-0.002 -0.04,-0.002l-0.071,0l-0,0.213l0.082,0c0.022,0 0.041,-0.002 0.057,-0.008c0.016,-0.005 0.03,-0.013 0.041,-0.022c0.01,-0.01 0.018,-0.021 0.023,-0.034c0.005,-0.013 0.008,-0.027 0.008,-0.043Z" style="fill-rule:nonzero;"/>
        </g>
        <g transform="matrix(16.7526,0,0,16.7526,66.4131,38)">
            <path d="M0.168,-0.013c-0,0.003 -0.001,0.005 -0.002,0.007c-0.001,0.002 -0.004,0.004 -0.007,0.005c-0.003,0.001 -0.007,0.002 -0.013,0.003c-0.005,0.001 -0.012,0.001 -0.02,0.001c-0.008,-0 -0.015,-0 -0.02,-0.001c-0.006,-0.001 -0.01,-0.002 -0.013,-0.003c-0.003,-0.001 -0.006,-0.003 -0.007,-0.005c-0.001,-0.002 -0.002,-0.004 -0.002,-0.007l-0,-0.606c-0,-0.003 0.001,-0.005 0.002,-0.007c0.002,-0.002 0.004,-0.003 0.008,-0.005c0.003,-0.001 0.007,-0.002 0.013,-0.003c0.005,-0 0.011,-0.001 0.019,-0.001c0.008,0 0.015,0.001 0.02,0.001c0.006,0.001 0.01,0.002 0.013,0.003c0.003,0.002 0.006,0.003 0.007,0.005c0.001,0.002 0.002,0.004 0.002,0.007l-0,0.606Z" style="fill-rule:nonzero;"/>
        </g>
        <g transform="matrix(16.7526,0,0,16.7526,70.6339,38)">
            <path d="M0.613,-0.323c0,0.051 -0.006,0.097 -0.018,0.138c-0.012,0.041 -0.03,0.076 -0.054,0.105c-0.024,0.028 -0.054,0.051 -0.09,0.066c-0.036,0.016 -0.078,0.023 -0.126,0.023c-0.048,0 -0.089,-0.007 -0.124,-0.021c-0.034,-0.014 -0.063,-0.035 -0.086,-0.062c-0.022,-0.027 -0.039,-0.06 -0.05,-0.1c-0.011,-0.04 -0.017,-0.086 -0.017,-0.139c0,-0.049 0.006,-0.095 0.018,-0.135c0.012,-0.041 0.031,-0.076 0.055,-0.104c0.024,-0.028 0.054,-0.05 0.09,-0.066c0.036,-0.015 0.078,-0.023 0.126,-0.023c0.047,-0 0.087,0.007 0.122,0.021c0.034,0.014 0.063,0.034 0.086,0.061c0.023,0.027 0.04,0.06 0.051,0.1c0.012,0.039 0.017,0.085 0.017,0.136Zm-0.088,0.006c-0,-0.036 -0.003,-0.069 -0.01,-0.1c-0.006,-0.031 -0.017,-0.058 -0.031,-0.08c-0.015,-0.023 -0.035,-0.041 -0.06,-0.053c-0.024,-0.013 -0.055,-0.019 -0.091,-0.019c-0.037,-0 -0.068,0.007 -0.092,0.02c-0.025,0.014 -0.045,0.032 -0.061,0.055c-0.015,0.023 -0.026,0.049 -0.033,0.08c-0.006,0.03 -0.01,0.062 -0.01,0.096c0,0.037 0.003,0.071 0.009,0.102c0.007,0.031 0.017,0.058 0.032,0.081c0.014,0.023 0.034,0.04 0.059,0.053c0.024,0.012 0.055,0.019 0.092,0.019c0.037,-0 0.068,-0.007 0.093,-0.021c0.025,-0.014 0.045,-0.032 0.06,-0.055c0.016,-0.024 0.027,-0.051 0.033,-0.081c0.007,-0.031 0.01,-0.063 0.01,-0.097Z" style="fill-rule:nonzero;"/>
        </g>
    </g>
</svg>
