<?xml version="1.0" encoding="UTF-8" standalone="no"?>
<!DOCTYPE svg PUBLIC "-//W3C//DTD SVG 1.1//EN" "http://www.w3.org/Graphics/SVG/1.1/DTD/svg11.dtd">
<svg width="100%" height="100%" viewBox="0 0 178 40" version="1.1" xmlns="http://www.w3.org/2000/svg" xmlns:xlink="http://www.w3.org/1999/xlink" xml:space="preserve" xmlns:serif="http://www.serif.com/" style="fill-rule:evenodd;clip-rule:evenodd;stroke-linejoin:round;stroke-miterlimit:2;">
    <path d="M178.945,10.179L178.945,30.537C178.945,36.155 174.384,40.716 168.766,40.716L10.179,40.716C4.561,40.716 0,36.155 0,30.537L0,10.179C0,4.561 4.561,0 10.179,0L168.766,0C174.384,0 178.945,4.561 178.945,10.179Z" style="fill:rgb(0,255,185);"/>
    <g>
        <path d="M151.626,15.124L148.339,18.41L159.949,30.02C160.4,30.471 160.948,30.697 161.593,30.697C162.237,30.697 162.785,30.471 163.236,30.02C163.687,29.562 163.912,29.012 163.912,28.371C163.912,27.731 163.687,27.185 163.236,26.734L151.626,15.124Z" style="fill:rgb(125,69,51);fill-rule:nonzero;"/>
        <path d="M150.315,9.979C150.401,9.886 150.505,9.847 150.627,9.861L153.097,10.129C153.262,10.144 153.371,10.228 153.425,10.382C153.478,10.536 153.448,10.67 153.333,10.785L151.228,12.89C151.228,12.89 151.187,12.972 151.105,13.137C151.023,13.301 151.074,13.477 151.261,13.663L152.775,15.177C152.847,15.249 152.882,15.338 152.882,15.446C152.882,15.553 152.847,15.646 152.775,15.725L148.941,19.559C148.862,19.631 148.771,19.667 148.667,19.667C148.563,19.667 148.472,19.631 148.393,19.559L146.105,18.313L144.838,15.993C144.759,15.922 144.72,15.832 144.72,15.725C144.72,15.618 144.759,15.524 144.838,15.446L150.315,9.979Z" style="fill:rgb(180,172,188);fill-rule:nonzero;"/>
        <path d="M161.84,15.306C161.754,15.399 161.648,15.446 161.523,15.446C161.397,15.446 161.288,15.399 161.195,15.306L159.949,14.06C159.863,13.974 159.82,13.869 159.82,13.743C159.82,13.618 159.863,13.512 159.949,13.427L161.925,11.45C162.047,11.329 162.085,11.18 162.038,11.005C161.992,10.829 161.883,10.72 161.711,10.677C161.081,10.527 160.44,10.534 159.788,10.699C159.137,10.863 158.56,11.189 158.059,11.676C157.508,12.206 157.148,12.83 156.98,13.55C156.811,14.27 156.835,14.973 157.049,15.661L149.531,23.222C148.851,23 148.151,22.967 147.432,23.125C146.712,23.282 146.08,23.633 145.536,24.177C145.035,24.679 144.698,25.26 144.527,25.923C144.355,26.585 144.348,27.235 144.505,27.872C144.541,28.051 144.646,28.164 144.822,28.21C144.997,28.257 145.146,28.216 145.268,28.087L147.244,26.121C147.33,26.028 147.435,25.982 147.561,25.982C147.686,25.982 147.795,26.028 147.888,26.121L149.134,27.367C149.22,27.453 149.263,27.559 149.263,27.684C149.263,27.809 149.22,27.919 149.134,28.012L147.158,29.977C147.029,30.106 146.99,30.256 147.04,30.428C147.09,30.6 147.201,30.707 147.373,30.75C148.003,30.901 148.644,30.894 149.295,30.729C149.947,30.564 150.523,30.238 151.024,29.752C151.568,29.229 151.926,28.611 152.098,27.899C152.27,27.186 152.252,26.49 152.045,25.81L159.584,18.217C160.257,18.431 160.952,18.458 161.668,18.297C162.384,18.136 163.01,17.787 163.547,17.25C164.048,16.749 164.385,16.169 164.557,15.51C164.729,14.851 164.736,14.2 164.578,13.555C164.535,13.384 164.428,13.273 164.256,13.223C164.084,13.172 163.937,13.212 163.816,13.341L161.84,15.306Z" style="fill:rgb(180,172,188);fill-rule:nonzero;"/>
        <path d="M142.379,16.992L147.308,21.922C147.394,22.015 147.484,22.015 147.577,21.922L148.071,21.428C148.379,21.12 148.533,20.753 148.533,20.327C148.533,19.901 148.379,19.538 148.071,19.237L145.064,16.219C144.763,15.918 144.398,15.768 143.968,15.768C143.538,15.768 143.173,15.918 142.873,16.219L142.379,16.724C142.285,16.81 142.285,16.899 142.379,16.992Z" style="fill:rgb(205,196,214);fill-rule:nonzero;"/>
        <path d="M27.996,22.881L33.981,23.241C33.699,25.855 32.733,27.861 31.082,29.256C29.431,30.652 27.402,31.35 24.996,31.35C22.1,31.35 19.762,30.392 17.981,28.475C16.199,26.559 15.309,23.913 15.309,20.538C15.309,17.194 16.152,14.496 17.84,12.444C19.527,10.392 21.882,9.366 24.902,9.366C27.725,9.366 29.895,10.147 31.41,11.71C32.926,13.272 33.783,15.345 33.981,17.928L27.871,18.256C27.871,16.829 27.598,15.798 27.051,15.163C26.504,14.527 25.861,14.21 25.121,14.21C23.059,14.21 22.027,16.282 22.027,20.428C22.027,22.751 22.296,24.329 22.832,25.163C23.369,25.996 24.121,26.413 25.09,26.413C26.819,26.413 27.788,25.236 27.996,22.881Z" style="fill-rule:nonzero;"/>
        <path d="M55.356,31.022L48.09,31.022L44.981,22.866L42.918,22.866L42.918,31.022L36.371,31.022L36.371,9.694L47.512,9.694C49.97,9.694 51.879,10.269 53.238,11.42C54.598,12.572 55.277,14.09 55.277,15.975C55.277,17.204 55.027,18.29 54.527,19.233C54.027,20.176 53.017,21.006 51.496,21.725L55.356,31.022ZM42.918,18.303L45.715,18.303C46.538,18.303 47.199,18.131 47.699,17.788C48.199,17.444 48.449,16.939 48.449,16.272C48.449,14.907 47.611,14.225 45.934,14.225L42.918,14.225L42.918,18.303Z" style="fill-rule:nonzero;"/>
        <path d="M74.496,25.928L74.496,31.022L58.449,31.022L58.449,9.694L74.496,9.694L74.496,14.616L64.871,14.616L64.871,17.71L72.652,17.71L72.652,22.444L64.871,22.444L64.871,25.928L74.496,25.928Z" style="fill-rule:nonzero;"/>
        <path d="M88.856,31.022L87.652,26.819L81.934,26.819L80.652,31.022L75.34,31.022L81.934,9.694L88.856,9.694L95.527,31.022L88.856,31.022ZM83.043,22.163L86.512,22.163L84.777,15.985L83.043,22.163Z" style="fill-rule:nonzero;"/>
        <path d="M105.043,14.803L105.043,31.022L98.84,31.022L98.84,14.803L94.418,14.803L94.418,9.694L109.465,9.694L109.465,14.803L105.043,14.803Z" style="fill-rule:nonzero;"/>
        <path d="M127.371,25.928L127.371,31.022L111.324,31.022L111.324,9.694L127.371,9.694L127.371,14.616L117.746,14.616L117.746,17.71L125.527,17.71L125.527,22.444L117.746,22.444L117.746,25.928L127.371,25.928Z" style="fill-rule:nonzero;"/>
    </g>
</svg>
