<?xml version="1.0" encoding="UTF-8" standalone="no"?>
<!DOCTYPE svg PUBLIC "-//W3C//DTD SVG 1.1//EN" "http://www.w3.org/Graphics/SVG/1.1/DTD/svg11.dtd">
<svg width="100%" height="100%" viewBox="0 0 178 40" version="1.1" xmlns="http://www.w3.org/2000/svg" xmlns:xlink="http://www.w3.org/1999/xlink" xml:space="preserve" xmlns:serif="http://www.serif.com/" style="fill-rule:evenodd;clip-rule:evenodd;stroke-linejoin:round;stroke-miterlimit:2;">
    <g>
        <path d="M178.945,10.179L178.945,30.537C178.945,36.155 174.384,40.716 168.766,40.716L10.179,40.716C4.561,40.716 0,36.155 0,30.537L0,10.179C0,4.561 4.561,0 10.179,0L168.766,0C174.384,0 178.945,4.561 178.945,10.179Z" style="fill:rgb(255,186,0);"/>
        <g>
            <g>
                <path d="M150.843,10.652L136.881,24.604C136.745,24.747 136.723,24.901 136.816,25.066C136.838,25.101 136.856,25.134 136.87,25.162C136.884,25.191 136.899,25.223 136.913,25.259L137.428,27.246L139.523,27.858C139.551,27.872 139.666,27.933 139.695,27.955C139.866,28.055 140.024,28.033 140.167,27.89L154.129,13.928C154.58,13.477 154.806,12.931 154.806,12.29C154.806,11.649 154.58,11.104 154.129,10.652C153.671,10.194 153.122,9.965 152.481,9.965C151.84,9.965 151.294,10.194 150.843,10.652Z" style="fill:rgb(0,116,186);fill-rule:nonzero;"/>
                <path d="M150.027,10.921C149.869,11.071 149.79,11.254 149.79,11.469C149.79,11.683 149.869,11.866 150.027,12.016L153.034,15.024L149.747,18.31C149.597,18.46 149.522,18.643 149.522,18.858C149.522,19.073 149.597,19.255 149.747,19.406C149.898,19.556 150.08,19.631 150.295,19.631C150.51,19.631 150.693,19.556 150.843,19.406L154.677,15.571C154.827,15.421 154.903,15.238 154.903,15.024C154.903,14.809 154.827,14.626 154.677,14.476L151.111,10.921C150.961,10.771 150.78,10.695 150.569,10.695C150.358,10.695 150.177,10.771 150.027,10.921Z" style="fill:rgb(211,211,211);fill-rule:nonzero;"/>
                <path d="M142.627,18.31L142.079,18.858C142.007,18.937 141.972,19.03 141.972,19.137C141.972,19.245 142.007,19.334 142.079,19.406L145.365,22.692C145.444,22.771 145.537,22.81 145.645,22.81C145.752,22.81 145.842,22.771 145.913,22.692L146.461,22.144C146.54,22.066 146.579,21.974 146.579,21.87C146.579,21.767 146.54,21.675 146.461,21.597L143.174,18.31C143.103,18.239 143.013,18.203 142.906,18.203C142.799,18.203 142.705,18.239 142.627,18.31Z" style="fill:rgb(211,211,211);fill-rule:nonzero;"/>
                <path d="M136.881,25.152L135.334,26.709C135.091,26.945 134.908,27.228 134.786,27.557L133.637,30.715C133.594,30.844 133.619,30.958 133.712,31.059C133.813,31.152 133.927,31.177 134.056,31.134L137.224,29.985C137.547,29.863 137.829,29.68 138.073,29.437L139.619,27.89L136.881,25.152Z" style="fill:rgb(211,211,211);fill-rule:nonzero;"/>
                <path d="M137.154,28.71C137.23,28.635 137.287,28.55 137.324,28.455C137.362,28.361 137.381,28.263 137.381,28.163C137.381,28.062 137.362,27.965 137.324,27.87C137.287,27.775 137.23,27.69 137.154,27.615C137.079,27.539 136.994,27.482 136.899,27.445C136.804,27.407 136.707,27.388 136.606,27.388C136.506,27.388 136.409,27.407 136.314,27.445C136.22,27.482 136.134,27.539 136.059,27.615C135.983,27.69 135.927,27.775 135.889,27.87C135.851,27.965 135.832,28.062 135.832,28.163C135.832,28.263 135.851,28.36 135.889,28.455C135.927,28.549 135.983,28.635 136.059,28.71C136.135,28.786 136.22,28.842 136.314,28.88C136.409,28.918 136.506,28.937 136.607,28.937C136.707,28.937 136.805,28.918 136.899,28.88C136.994,28.842 137.079,28.786 137.154,28.71Z" style="fill:rgb(99,99,99);fill-rule:nonzero;"/>
                <path d="M52.402,9.562L46.745,30.89L41.245,30.89L38.261,19.124L35.448,30.89L29.714,30.89L24.042,9.562L30.198,9.562L33.183,21.876L36.089,9.562L41.245,9.562L44.402,21.855L47.386,9.562L52.402,9.562Z" style="fill-rule:nonzero;"/>
                <path d="M73.464,30.89L66.198,30.89L63.089,22.734L61.027,22.734L61.027,30.89L54.48,30.89L54.48,9.562L65.62,9.562C68.079,9.562 69.988,10.137 71.347,11.288C72.706,12.439 73.386,13.958 73.386,15.843C73.386,17.072 73.136,18.158 72.636,19.101C72.136,20.044 71.126,20.874 69.605,21.593L73.464,30.89ZM61.027,18.171L63.823,18.171C64.646,18.171 65.308,17.999 65.808,17.656C66.308,17.312 66.558,16.807 66.558,16.14C66.558,14.775 65.719,14.093 64.042,14.093L61.027,14.093L61.027,18.171Z" style="fill-rule:nonzero;"/>
                <rect x="76.558" y="9.562" width="6.547" height="21.328" style="fill-rule:nonzero;"/>
                <path d="M95.589,14.671L95.589,30.89L89.386,30.89L89.386,14.671L84.964,14.671L84.964,9.562L100.011,9.562L100.011,14.671L95.589,14.671Z" style="fill-rule:nonzero;"/>
                <path d="M117.917,25.796L117.917,30.89L101.87,30.89L101.87,9.562L117.917,9.562L117.917,14.484L108.292,14.484L108.292,17.577L116.073,17.577L116.073,22.312L108.292,22.312L108.292,25.796L117.917,25.796Z" style="fill-rule:nonzero;"/>
            </g>
        </g>
    </g>
</svg>
